{
  "ffprobe": {
    "audio_streams": [
      {
        "avg_frame_rate": "0/0",
        "bit_rate": "1152000",
        "bits_per_raw_sample": "24",
        "bits_per_sample": 24,
        "channels": 1,
        "codec_long_name": "PCM signed 24-bit little-endian",
        "codec_name": "pcm_s24le",
        "codec_tag": "0x34326e69",
        "codec_tag_string": "in24",
        "codec_time_base": "1/48000",
        "codec_type": "audio",
        "disposition": {
          "attached_pic": 0,
          "clean_effects": 0,
          "comment": 0,
          "default": 1,
          "dub": 0,
          "forced": 0,
          "hearing_impaired": 0,
          "karaoke": 0,
          "lyrics": 0,
          "original": 0,
          "timed_thumbnails": 0,
          "visual_impaired": 0
        },
        "duration": "256.960000",
        "duration_ts": 12334080,
        "index": 1,
        "nb_frames": "12334080",
        "r_frame_rate": "0/0",
        "sample_fmt": "s32",
        "sample_rate": "48000",
        "start_pts": 0,
        "start_time": "0.000000",
        "tags": {
          "creation_time": "2020-06-30T11:07:06.000000Z",
          "handler_name": "Apple Sound Media Handler",
          "language": "eng",
          "timecode": "09:59:50:00"
        },
        "time_base": "1/48000"
      },
      {
        "avg_frame_rate": "0/0",
        "bit_rate": "1152000",
        "bits_per_raw_sample": "24",
        "bits_per_sample": 24,
        "channels": 1,
        "codec_long_name": "PCM signed 24-bit little-endian",
        "codec_name": "pcm_s24le",
        "codec_tag": "0x34326e69",
        "codec_tag_string": "in24",
        "codec_time_base": "1/48000",
        "codec_type": "audio",
        "disposition": {
          "attached_pic": 0,
          "clean_effects": 0,
          "comment": 0,
          "default": 1,
          "dub": 0,
          "forced": 0,
          "hearing_impaired": 0,
          "karaoke": 0,
          "lyrics": 0,
          "original": 0,
          "timed_thumbnails": 0,
          "visual_impaired": 0
        },
        "duration": "256.960000",
        "duration_ts": 12334080,
        "index": 2,
        "nb_frames": "12334080",
        "r_frame_rate": "0/0",
        "sample_fmt": "s32",
        "sample_rate": "48000",
        "start_pts": 0,
        "start_time": "0.000000",
        "tags": {
          "creation_time": "2020-06-30T11:07:06.000000Z",
          "handler_name": "Apple Sound Media Handler",
          "language": "eng",
          "timecode": "09:59:50:00"
        },
        "time_base": "1/48000"
      },
      {
        "avg_frame_rate": "0/0",
        "bit_rate": "1152000",
        "bits_per_raw_sample": "24",
        "bits_per_sample": 24,
        "channels": 1,
        "codec_long_name": "PCM signed 24-bit little-endian",
        "codec_name": "pcm_s24le",
        "codec_tag": "0x34326e69",
        "codec_tag_string": "in24",
        "codec_time_base": "1/48000",
        "codec_type": "audio",
        "disposition": {
          "attached_pic": 0,
          "clean_effects": 0,
          "comment": 0,
          "default": 1,
          "dub": 0,
          "forced": 0,
          "hearing_impaired": 0,
          "karaoke": 0,
          "lyrics": 0,
          "original": 0,
          "timed_thumbnails": 0,
          "visual_impaired": 0
        },
        "duration": "256.960000",
        "duration_ts": 12334080,
        "index": 3,
        "nb_frames": "12334080",
        "r_frame_rate": "0/0",
        "sample_fmt": "s32",
        "sample_rate": "48000",
        "start_pts": 0,
        "start_time": "0.000000",
        "tags": {
          "creation_time": "2020-06-30T11:07:06.000000Z",
          "handler_name": "Apple Sound Media Handler",
          "language": "eng",
          "timecode": "09:59:50:00"
        },
        "time_base": "1/48000"
      },
      {
        "avg_frame_rate": "0/0",
        "bit_rate": "1152000",
        "bits_per_raw_sample": "24",
        "bits_per_sample": 24,
        "channels": 1,
        "codec_long_name": "PCM signed 24-bit little-endian",
        "codec_name": "pcm_s24le",
        "codec_tag": "0x34326e69",
        "codec_tag_string": "in24",
        "codec_time_base": "1/48000",
        "codec_type": "audio",
        "disposition": {
          "attached_pic": 0,
          "clean_effects": 0,
          "comment": 0,
          "default": 1,
          "dub": 0,
          "forced": 0,
          "hearing_impaired": 0,
          "karaoke": 0,
          "lyrics": 0,
          "original": 0,
          "timed_thumbnails": 0,
          "visual_impaired": 0
        },
        "duration": "256.960000",
        "duration_ts": 12334080,
        "index": 4,
        "nb_frames": "12334080",
        "r_frame_rate": "0/0",
        "sample_fmt": "s32",
        "sample_rate": "48000",
        "start_pts": 0,
        "start_time": "0.000000",
        "tags": {
          "creation_time": "2020-06-30T11:07:06.000000Z",
          "handler_name": "Apple Sound Media Handler",
          "language": "eng",
          "timecode": "09:59:50:00"
        },
        "time_base": "1/48000"
      },
      {
        "avg_frame_rate": "0/0",
        "bit_rate": "1152000",
        "bits_per_raw_sample": "24",
        "bits_per_sample": 24,
        "channels": 1,
        "codec_long_name": "PCM signed 24-bit little-endian",
        "codec_name": "pcm_s24le",
        "codec_tag": "0x34326e69",
        "codec_tag_string": "in24",
        "codec_time_base": "1/48000",
        "codec_type": "audio",
        "disposition": {
          "attached_pic": 0,
          "clean_effects": 0,
          "comment": 0,
          "default": 1,
          "dub": 0,
          "forced": 0,
          "hearing_impaired": 0,
          "karaoke": 0,
          "lyrics": 0,
          "original": 0,
          "timed_thumbnails": 0,
          "visual_impaired": 0
        },
        "duration": "256.960000",
        "duration_ts": 12334080,
        "index": 5,
        "nb_frames": "12334080",
        "r_frame_rate": "0/0",
        "sample_fmt": "s32",
        "sample_rate": "48000",
        "start_pts": 0,
        "start_time": "0.000000",
        "tags": {
          "creation_time": "2020-06-30T11:07:06.000000Z",
          "handler_name": "Apple Sound Media Handler",
          "language": "eng",
          "timecode": "09:59:50:00"
        },
        "time_base": "1/48000"
      },
      {
        "avg_frame_rate": "0/0",
        "bit_rate": "1152000",
        "bits_per_raw_sample": "24",
        "bits_per_sample": 24,
        "channels": 1,
        "codec_long_name": "PCM signed 24-bit little-endian",
        "codec_name": "pcm_s24le",
        "codec_tag": "0x34326e69",
        "codec_tag_string": "in24",
        "codec_time_base": "1/48000",
        "codec_type": "audio",
        "disposition": {
          "attached_pic": 0,
          "clean_effects": 0,
          "comment": 0,
          "default": 1,
          "dub": 0,
          "forced": 0,
          "hearing_impaired": 0,
          "karaoke": 0,
          "lyrics": 0,
          "original": 0,
          "timed_thumbnails": 0,
          "visual_impaired": 0
        },
        "duration": "256.960000",
        "duration_ts": 12334080,
        "index": 6,
        "nb_frames": "12334080",
        "r_frame_rate": "0/0",
        "sample_fmt": "s32",
        "sample_rate": "48000",
        "start_pts": 0,
        "start_time": "0.000000",
        "tags": {
          "creation_time": "2020-06-30T11:07:06.000000Z",
          "handler_name": "Apple Sound Media Handler",
          "language": "eng",
          "timecode": "09:59:50:00"
        },
        "time_base": "1/48000"
      },
      {
        "avg_frame_rate": "0/0",
        "bit_rate": "1152000",
        "bits_per_raw_sample": "24",
        "bits_per_sample": 24,
        "channels": 1,
        "codec_long_name": "PCM signed 24-bit little-endian",
        "codec_name": "pcm_s24le",
        "codec_tag": "0x34326e69",
        "codec_tag_string": "in24",
        "codec_time_base": "1/48000",
        "codec_type": "audio",
        "disposition": {
          "attached_pic": 0,
          "clean_effects": 0,
          "comment": 0,
          "default": 1,
          "dub": 0,
          "forced": 0,
          "hearing_impaired": 0,
          "karaoke": 0,
          "lyrics": 0,
          "original": 0,
          "timed_thumbnails": 0,
          "visual_impaired": 0
        },
        "duration": "256.960000",
        "duration_ts": 12334080,
        "index": 7,
        "nb_frames": "12334080",
        "r_frame_rate": "0/0",
        "sample_fmt": "s32",
        "sample_rate": "48000",
        "start_pts": 0,
        "start_time": "0.000000",
        "tags": {
          "creation_time": "2020-06-30T11:07:06.000000Z",
          "handler_name": "Apple Sound Media Handler",
          "language": "eng",
          "timecode": "09:59:50:00"
        },
        "time_base": "1/48000"
      },
      {
        "avg_frame_rate": "0/0",
        "bit_rate": "1152000",
        "bits_per_raw_sample": "24",
        "bits_per_sample": 24,
        "channels": 1,
        "codec_long_name": "PCM signed 24-bit little-endian",
        "codec_name": "pcm_s24le",
        "codec_tag": "0x34326e69",
        "codec_tag_string": "in24",
        "codec_time_base": "1/48000",
        "codec_type": "audio",
        "disposition": {
          "attached_pic": 0,
          "clean_effects": 0,
          "comment": 0,
          "default": 1,
          "dub": 0,
          "forced": 0,
          "hearing_impaired": 0,
          "karaoke": 0,
          "lyrics": 0,
          "original": 0,
          "timed_thumbnails": 0,
          "visual_impaired": 0
        },
        "duration": "256.960000",
        "duration_ts": 12334080,
        "index": 8,
        "nb_frames": "12334080",
        "r_frame_rate": "0/0",
        "sample_fmt": "s32",
        "sample_rate": "48000",
        "start_pts": 0,
        "start_time": "0.000000",
        "tags": {
          "creation_time": "2020-06-30T11:07:06.000000Z",
          "handler_name": "Apple Sound Media Handler",
          "language": "eng",
          "timecode": "09:59:50:00"
        },
        "time_base": "1/48000"
      }
    ],
    "data_streams": [
      {
        "avg_frame_rate": "25/1",
        "codec_tag": "0x64636d74",
        "codec_tag_string": "tmcd",
        "codec_type": "data",
        "disposition": {
          "attached_pic": 0,
          "clean_effects": 0,
          "comment": 0,
          "default": 1,
          "dub": 0,
          "forced": 0,
          "hearing_impaired": 0,
          "karaoke": 0,
          "lyrics": 0,
          "original": 0,
          "timed_thumbnails": 0,
          "visual_impaired": 0
        },
        "duration": "256.960000",
        "duration_ts": 6424,
        "index": 9,
        "nb_frames": "1",
        "r_frame_rate": "0/0",
        "start_pts": 0,
        "start_time": "0.000000",
        "tags": {
          "creation_time": "2020-06-30T11:07:06.000000Z",
          "handler_name": "Time Code Media Handler",
          "language": "eng",
          "timecode": "09:59:50:00"
        },
        "time_base": "1/25"
      }
    ],
    "format": {
      "bit_rate": "130490245",
      "duration": "256.960000",
      "filename": "/mnt/media2/UEFA/202006/9693366004/9693366004_original.mov",
      "filename_extension": "mov",
      "format_long_name": "QuickTime / MOV",
      "format_name": "mov,mp4,m4a,3gp,3g2,mj2",
      "nb_programs": 0,
      "probe_score": 100,
      "size": "4191346692",
      "start_time": "0.000000",
      "streams_attachment_count": 0,
      "streams_audio_count": 8,
      "streams_count": 10,
      "streams_data_count": 1,
      "streams_image_count": 0,
      "streams_subtitle_count": 0,
      "streams_video_count": 1
    },
    "video_streams": [
      {
        "avg_frame_rate": "25/1",
        "bit_rate": "121241600",
        "bits_per_raw_sample": "8",
        "codec_long_name": "VC3/DNxHD",
        "codec_name": "dnxhd",
        "codec_tag": "0x6e645641",
        "codec_tag_string": "AVdn",
        "codec_time_base": "1/25",
        "codec_type": "video",
        "coded_height": 1088,
        "coded_width": 1920,
        "color_range": "tv",
        "color_space": "bt709",
        "display_aspect_ratio": "16:9",
        "disposition": {
          "attached_pic": 0,
          "clean_effects": 0,
          "comment": 0,
          "default": 1,
          "dub": 0,
          "forced": 0,
          "hearing_impaired": 0,
          "karaoke": 0,
          "lyrics": 0,
          "original": 0,
          "timed_thumbnails": 0,
          "visual_impaired": 0
        },
        "duration": "256.960000",
        "duration_ts": 6424,
        "field_order": "tb",
        "has_b_frames": 0,
        "height": 1080,
        "index": 0,
        "level": -99,
        "nb_frames": "6424",
        "pix_fmt": "yuv422p",
        "profile": "DNXHD",
        "r_frame_rate": "25/1",
        "refs": 1,
        "sample_aspect_ratio": "1:1",
        "start_pts": 0,
        "start_time": "0.000000",
        "tags": {
          "creation_time": "2020-06-30T11:07:06.000000Z",
          "encoder": "DNxHR/DNxHD",
          "handler_name": "Apple Video Media Handler",
          "language": "eng",
          "timecode": "09:59:50:00"
        },
        "time_base": "1/25",
        "width": 1920
      }
    ]
  },
  "mediainfo": {
    "audio_streams": [
      {
        "BitDepth": 24,
        "BitRate": 1152000,
        "BitRate_Mode": "CBR",
        "ChannelLayout": "?",
        "Channels": 1,
        "CodecID": "in24",
        "Delay": "35990.000",
        "Delay_DropFrame": "No",
        "Delay_Source": "Container",
        "Duration": "256.960",
        "Encoded_Date": "UTC 2020-06-30 11:07:06",
        "Format": "PCM",
        "Format_Settings_Endianness": "Little",
        "Format_Settings_Sign": "Signed",
        "ID": 2,
        "Language": "en",
        "SamplingCount": 12334080,
        "SamplingRate": 48000,
        "StreamOrder": 1,
        "StreamSize": 37002240,
        "StreamSize_Proportion": "0.00883",
        "Tagged_Date": "UTC 2020-06-30 11:07:06"
      },
      {
        "BitDepth": 24,
        "BitRate": 1152000,
        "BitRate_Mode": "CBR",
        "ChannelLayout": "?",
        "Channels": 1,
        "CodecID": "in24",
        "Delay": "35990.000",
        "Delay_DropFrame": "No",
        "Delay_Source": "Container",
        "Duration": "256.960",
        "Encoded_Date": "UTC 2020-06-30 11:07:06",
        "Format": "PCM",
        "Format_Settings_Endianness": "Little",
        "Format_Settings_Sign": "Signed",
        "ID": 3,
        "Language": "en",
        "SamplingCount": 12334080,
        "SamplingRate": 48000,
        "StreamOrder": 2,
        "StreamSize": 37002240,
        "StreamSize_Proportion": "0.00883",
        "Tagged_Date": "UTC 2020-06-30 11:07:06"
      },
      {
        "BitDepth": 24,
        "BitRate": 1152000,
        "BitRate_Mode": "CBR",
        "ChannelLayout": "?",
        "Channels": 1,
        "CodecID": "in24",
        "Delay": "35990.000",
        "Delay_DropFrame": "No",
        "Delay_Source": "Container",
        "Duration": "256.960",
        "Encoded_Date": "UTC 2020-06-30 11:07:06",
        "Format": "PCM",
        "Format_Settings_Endianness": "Little",
        "Format_Settings_Sign": "Signed",
        "ID": 4,
        "Language": "en",
        "SamplingCount": 12334080,
        "SamplingRate": 48000,
        "StreamOrder": 3,
        "StreamSize": 37002240,
        "StreamSize_Proportion": "0.00883",
        "Tagged_Date": "UTC 2020-06-30 11:07:06"
      },
      {
        "BitDepth": 24,
        "BitRate": 1152000,
        "BitRate_Mode": "CBR",
        "ChannelLayout": "?",
        "Channels": 1,
        "CodecID": "in24",
        "Delay": "35990.000",
        "Delay_DropFrame": "No",
        "Delay_Source": "Container",
        "Duration": "256.960",
        "Encoded_Date": "UTC 2020-06-30 11:07:06",
        "Format": "PCM",
        "Format_Settings_Endianness": "Little",
        "Format_Settings_Sign": "Signed",
        "ID": 5,
        "Language": "en",
        "SamplingCount": 12334080,
        "SamplingRate": 48000,
        "StreamOrder": 4,
        "StreamSize": 37002240,
        "StreamSize_Proportion": "0.00883",
        "Tagged_Date": "UTC 2020-06-30 11:07:06"
      },
      {
        "BitDepth": 24,
        "BitRate": 1152000,
        "BitRate_Mode": "CBR",
        "ChannelLayout": "?",
        "Channels": 1,
        "CodecID": "in24",
        "Delay": "35990.000",
        "Delay_DropFrame": "No",
        "Delay_Source": "Container",
        "Duration": "256.960",
        "Encoded_Date": "UTC 2020-06-30 11:07:06",
        "Format": "PCM",
        "Format_Settings_Endianness": "Little",
        "Format_Settings_Sign": "Signed",
        "ID": 6,
        "Language": "en",
        "SamplingCount": 12334080,
        "SamplingRate": 48000,
        "StreamOrder": 5,
        "StreamSize": 37002240,
        "StreamSize_Proportion": "0.00883",
        "Tagged_Date": "UTC 2020-06-30 11:07:06"
      },
      {
        "BitDepth": 24,
        "BitRate": 1152000,
        "BitRate_Mode": "CBR",
        "ChannelLayout": "?",
        "Channels": 1,
        "CodecID": "in24",
        "Delay": "35990.000",
        "Delay_DropFrame": "No",
        "Delay_Source": "Container",
        "Duration": "256.960",
        "Encoded_Date": "UTC 2020-06-30 11:07:06",
        "Format": "PCM",
        "Format_Settings_Endianness": "Little",
        "Format_Settings_Sign": "Signed",
        "ID": 7,
        "Language": "en",
        "SamplingCount": 12334080,
        "SamplingRate": 48000,
        "StreamOrder": 6,
        "StreamSize": 37002240,
        "StreamSize_Proportion": "0.00883",
        "Tagged_Date": "UTC 2020-06-30 11:07:06"
      },
      {
        "BitDepth": 24,
        "BitRate": 1152000,
        "BitRate_Mode": "CBR",
        "ChannelLayout": "?",
        "Channels": 1,
        "CodecID": "in24",
        "Delay": "35990.000",
        "Delay_DropFrame": "No",
        "Delay_Source": "Container",
        "Duration": "256.960",
        "Encoded_Date": "UTC 2020-06-30 11:07:06",
        "Format": "PCM",
        "Format_Settings_Endianness": "Little",
        "Format_Settings_Sign": "Signed",
        "ID": 8,
        "Language": "en",
        "SamplingCount": 12334080,
        "SamplingRate": 48000,
        "StreamOrder": 7,
        "StreamSize": 37002240,
        "StreamSize_Proportion": "0.00883",
        "Tagged_Date": "UTC 2020-06-30 11:07:06"
      },
      {
        "BitDepth": 24,
        "BitRate": 1152000,
        "BitRate_Mode": "CBR",
        "ChannelLayout": "?",
        "Channels": 1,
        "CodecID": "in24",
        "Delay": "35990.000",
        "Delay_DropFrame": "No",
        "Delay_Source": "Container",
        "Duration": "256.960",
        "Encoded_Date": "UTC 2020-06-30 11:07:06",
        "Format": "PCM",
        "Format_Settings_Endianness": "Little",
        "Format_Settings_Sign": "Signed",
        "ID": 9,
        "Language": "en",
        "SamplingCount": 12334080,
        "SamplingRate": 48000,
        "StreamOrder": 8,
        "StreamSize": 37002240,
        "StreamSize_Proportion": "0.00883",
        "Tagged_Date": "UTC 2020-06-30 11:07:06"
      }
    ],
    "format": {
      "AudioCount": 8,
      "CodecID": "qt  ",
      "CodecID_Compatible": "qt  ",
      "CodecID_Version": "2005.03",
      "DataSize": 4190298124,
      "Duration": "256.960",
      "Encoded_Date": "UTC 2020-06-30 11:07:06",
      "Encoded_Library": "Apple QuickTime",
      "Encoded_Library_Name": "Apple QuickTime",
      "FileExtension": "mov",
      "FileSize": 4191346692,
      "File_Modified_Date": "UTC 2020-06-26 11:44:29",
      "File_Modified_Date_Local": "2020-06-26 11:44:29",
      "FooterSize": 0,
      "Format": "MPEG-4",
      "Format_Commercial_IfAny": "DNxHD 120",
      "Format_Profile": "QuickTime",
      "FrameCount": 6424,
      "FrameRate": "25.000",
      "HeaderSize": 1048568,
      "IsStreamable": "Yes",
      "OtherCount": 1,
      "OverallBitRate": 130490248,
      "StreamSize": 1048580,
      "Tagged_Date": "UTC 2020-06-26 11:17:01",
      "VideoCount": 1,
      "extra": {
        "TIM": "09:59:50:00",
        "TSC": 25,
        "TSZ": 1
      },
      "filename": "/mnt/media2/UEFA/202006/9693366004/9693366004_original.mov",
      "streams_attachment_count": 0,
      "streams_audio_count": 8,
      "streams_count": 9,
      "streams_data_count": 0,
      "streams_image_count": 0,
      "streams_other_count": 0,
      "streams_subtitle_count": 0,
      "streams_video_count": 1
    },
    "other_streams": [
      {
        "Duration": "256.960",
        "Format": "QuickTime TC",
        "ID": 10,
        "Language": "en",
        "StreamOrder": 9,
        "TimeCode_FirstFrame": "09:59:50:00",
        "TimeCode_Striped": "Yes",
        "Type": "Time code",
        "extra": {
          "Encoded_Date": "UTC 2020-06-30 11:07:06",
          "Tagged_Date": "UTC 2020-06-30 11:07:06"
        }
      }
    ],
    "video_streams": [
      {
        "BitDepth": 8,
        "BitRate": 121241600,
        "BitRate_Mode": "CBR",
        "ChromaSubsampling": "4:2:2",
        "CodecID": "AVdn",
        "ColorSpace": "YUV",
        "Delay": "35990.000",
        "DisplayAspectRatio": "1.778",
        "Duration": "256.960",
        "Encoded_Date": "UTC 2020-06-30 11:07:06",
        "Format": "VC-3",
        "Format_Commercial_IfAny": "DNxHD 120",
        "Format_Level": "SQ",
        "Format_Profile": "HD",
        "Format_Version": 1,
        "FrameCount": 6424,
        "FrameRate": "25.000",
        "FrameRate_Mode": "CFR",
        "Height": 1080,
        "ID": 1,
        "Language": "en",
        "PixelAspectRatio": "1.000",
        "Rotation": "0.000",
        "ScanOrder": "TFF",
        "ScanType": "Interlaced",
        "StreamOrder": 0,
        "StreamSize": 3894280192,
        "Tagged_Date": "UTC 2020-06-30 11:07:06",
        "Width": 1920,
        "colour_description_present": "Yes",
        "colour_description_present_Source": "Container",
        "colour_primaries_Source": "Container",
        "matrix_coefficients_Source": "Container",
        "transfer_characteristics_Source": "Container"
      }
    ]
  }
}
